<svg xmlns="http://www.w3.org/2000/svg" version="1.1" xmlns:xlink="http://www.w3.org/1999/xlink" xmlns:svgjs="http://svgjs.dev/svgjs" width="1500" height="1500" viewBox="0 0 1500 1500"><g transform="matrix(1,0,0,1,-0.7499999999998863,-0.7499999999998863)"><svg viewBox="0 0 280 280" data-background-color="#ffffff" preserveAspectRatio="xMidYMid meet" height="1500" width="1500" xmlns="http://www.w3.org/2000/svg" xmlns:xlink="http://www.w3.org/1999/xlink"><g id="tight-bounds" transform="matrix(1,0,0,1,0.13999999999998636,0.13999999999998636)"><svg viewBox="0 0 279.72 279.72" height="279.72" width="279.72"><g><svg viewBox="0 0 279.72 279.72" height="279.72" width="279.72"><g><svg viewBox="0 0 279.72 279.72" height="279.72" width="279.72"><g id="textblocktransform"><svg viewBox="0 0 279.72 279.72" height="279.72" width="279.72" id="textblock"><g><svg viewBox="0 0 279.72 279.72" height="279.72" width="279.72"><g transform="matrix(1,0,0,1,73.92936372216631,86.48781144693103)"><svg viewBox="0 0 131.8612725556674 106.74437710613795" height="106.74437710613795" width="131.8612725556674"><g id="icon-0"><svg xmlns="http://www.w3.org/2000/svg" xmlns:xlink="http://www.w3.org/1999/xlink" version="1.1" x="0" y="0" viewBox="4.9995 13.57205104139477 90.00076814621133 72.85744895860523" enable-background="new 0 0 100 100" xml:space="preserve" height="106.74437710613795" width="131.8612725556674" class="icon-xg-0" data-fill-palette-color="accent" id="xg-0"><g fill="#f37022" data-fill-palette-color="accent"><path fill="#f37022" d="M23.81 76.102c-2.362 2.361-2.362 6.192 0 8.556 2.362 2.362 6.193 2.362 8.556 0 2.361-2.363 2.361-6.194 0-8.556C30.003 73.739 26.172 73.739 23.81 76.102zM94.226 14.432l-0.086-0.085c-1.157-1.158-3.192-1-4.544 0.352L66.65 37.643 51.499 22.492 8.754 65.237 6.787 63.27l42.745-42.746c-2.363-2.348-6.183-2.343-8.541 0.015L6.771 54.757c-2.362 2.363-2.362 6.195 0 8.558L20.41 76.951c0.407-0.912 0.983-1.769 1.732-2.517 3.284-3.284 8.608-3.284 11.891 0 0.776 0.774 1.366 1.667 1.775 2.616l35.124-35.125-0.006-0.004 22.945-22.945C95.226 17.623 95.383 15.589 94.226 14.432z" data-fill-palette-color="accent"></path></g></svg></g></svg></g><g id="text-0"><path d="M3.956 92.815v0c-0.473 1.401-0.53 2.667-0.171 3.795 0.36 1.129 1.253 1.934 2.681 2.417v0c0.652 0.22 1.26 0.328 1.822 0.324 0.563-0.004 1.115-0.149 1.657-0.433 0.54-0.278 1.105-0.695 1.697-1.251 0.595-0.547 1.25-1.261 1.964-2.143v0c0.704-0.849 1.43-1.636 2.18-2.361 0.749-0.726 1.562-1.311 2.438-1.756 0.877-0.445 1.846-0.704 2.907-0.777 1.063-0.08 2.26 0.105 3.59 0.554v0c1.027 0.347 1.935 0.884 2.726 1.612 0.782 0.732 1.394 1.582 1.836 2.552 0.44 0.976 0.687 2.045 0.74 3.207 0.054 1.162-0.128 2.36-0.544 3.594v0c-0.423 1.253-0.949 2.298-1.578 3.136-0.633 0.83-1.319 1.497-2.058 2.003-0.746 0.504-1.519 0.865-2.319 1.084-0.801 0.219-1.595 0.335-2.385 0.349v0l-0.101-3.056c0.563-0.004 1.132-0.071 1.708-0.2 0.567-0.125 1.112-0.351 1.633-0.679 0.514-0.33 0.993-0.776 1.434-1.339 0.442-0.563 0.816-1.297 1.121-2.201v0c0.203-0.601 0.326-1.232 0.37-1.893 0.041-0.655-0.045-1.292-0.261-1.912-0.211-0.611-0.578-1.174-1.102-1.689-0.524-0.515-1.238-0.925-2.142-1.231v0c-0.956-0.323-1.787-0.471-2.494-0.443-0.707 0.027-1.387 0.219-2.04 0.573-0.65 0.349-1.303 0.876-1.959 1.583-0.654 0.7-1.415 1.547-2.283 2.542v0c-1.512 1.749-3.022 2.908-4.532 3.478-1.5 0.565-3.116 0.555-4.846-0.03v0c-0.956-0.323-1.795-0.8-2.517-1.432-0.722-0.632-1.278-1.392-1.669-2.28-0.384-0.885-0.587-1.871-0.609-2.958-0.024-1.08 0.177-2.25 0.603-3.509v0c0.72-2.131 1.715-3.651 2.987-4.56 1.273-0.915 2.76-1.449 4.458-1.602v0l0.036 3.12c-1.197 0.071-2.212 0.382-3.046 0.935-0.83 0.561-1.474 1.52-1.932 2.877z" fill="#000000" data-fill-palette-color="primary"></path><path d="M32.492 52.302l1.895-2.554 17.231 12.778-1.657 2.234-2.143-1.385c0.383 1.04 0.507 2.086 0.371 3.139-0.136 1.053-0.529 2.018-1.178 2.894v0c-0.564 0.761-1.194 1.398-1.888 1.91-0.69 0.507-1.452 0.825-2.285 0.953-0.835 0.119-1.746 0.02-2.734-0.296-0.978-0.318-2.042-0.903-3.191-1.756v0l-11.425-8.472 1.894-2.554 11.236 8.332c0.849 0.629 1.603 1.066 2.263 1.308 0.66 0.243 1.25 0.346 1.77 0.308 0.53-0.04 1.004-0.21 1.423-0.511 0.418-0.301 0.808-0.695 1.169-1.182v0c0.585-0.788 0.873-1.64 0.864-2.555-0.019-0.913-0.28-1.939-0.786-3.078v0z" fill="#000000" data-fill-palette-color="primary"></path><path d="M61.924 39.02v0c-2.157-3.083-3.211-5.803-3.161-8.158 0.045-2.361 1.087-4.255 3.126-5.681v0c1.542-1.079 3.056-1.477 4.543-1.194v0l-5.029-7.189 2.605-1.823 16.735 23.92-2.279 1.594-1.682-2.118c-0.001 1.199-0.236 2.291-0.703 3.275-0.469 0.994-1.193 1.833-2.171 2.517v0c-0.782 0.547-1.633 0.901-2.551 1.062-0.929 0.159-1.896 0.049-2.901-0.33-1.005-0.378-2.058-1.039-3.159-1.982-1.095-0.947-2.219-2.245-3.373-3.893zM73.022 41.576v0c0.76-0.531 1.312-1.205 1.657-2.02 0.346-0.825 0.542-1.806 0.586-2.943v0l-7.374-10.54c-0.861-0.172-1.636-0.186-2.327-0.044-0.696 0.146-1.293 0.393-1.79 0.741v0c-0.631 0.442-1.115 0.975-1.45 1.601-0.34 0.62-0.494 1.357-0.464 2.209 0.03 0.852 0.276 1.828 0.738 2.927 0.462 1.1 1.185 2.353 2.169 3.761v0c0.91 1.301 1.757 2.327 2.54 3.078 0.779 0.745 1.504 1.269 2.174 1.573 0.669 0.314 1.297 0.428 1.886 0.341 0.579-0.089 1.13-0.317 1.655-0.684z" fill="#000000" data-fill-palette-color="primary"></path><path d="M114.787 25.816l-2.624 0.789-0.844-2.234c-0.327 0.924-0.864 1.776-1.611 2.557-0.748 0.78-1.82 1.381-3.217 1.801v0c-0.731 0.22-1.504 0.335-2.32 0.345-0.809 0.009-1.584-0.132-2.326-0.421-0.735-0.291-1.403-0.749-2.004-1.372-0.605-0.615-1.068-1.455-1.388-2.519v0c-0.672-2.232-0.282-4.272 1.17-6.118 1.45-1.853 4.204-3.429 8.262-4.729v0l-0.516-1.713c-0.367-1.221-0.968-2.14-1.802-2.758-0.834-0.618-1.962-0.712-3.385-0.284v0c-1.09 0.328-1.916 0.872-2.477 1.632-0.553 0.764-0.866 1.723-0.939 2.878v0l-3.092-0.234c0.195-1.553 0.777-2.918 1.748-4.092 0.977-1.177 2.353-2.032 4.129-2.567v0c1.168-0.352 2.231-0.5 3.186-0.446 0.958 0.061 1.802 0.276 2.533 0.647 0.739 0.375 1.359 0.897 1.86 1.565 0.505 0.66 0.887 1.42 1.145 2.282v0zM106.599 26.037v0c0.966-0.291 1.75-0.762 2.352-1.412 0.608-0.653 1.103-1.396 1.485-2.231v0l-1.83-6.08c-2.904 0.924-4.921 1.979-6.051 3.167-1.139 1.183-1.476 2.548-1.01 4.094v0c0.389 1.292 1.055 2.11 1.998 2.453 0.948 0.334 1.967 0.337 3.056 0.009z" fill="#000000" data-fill-palette-color="primary"></path><path d="M140.936 23.348l-3.18 0.012-0.08-21.452 2.894-0.011 0.134 3.016c0.527-1.188 1.199-2.077 2.015-2.666 0.823-0.582 1.735-0.876 2.737-0.879v0c0.375-0.001 0.695 0.008 0.961 0.027 0.259 0.026 0.576 0.107 0.952 0.242v0l-0.787 2.979c-0.239-0.054-0.484-0.097-0.737-0.131-0.252-0.04-0.535-0.059-0.848-0.058v0c-0.532 0.002-1.002 0.116-1.41 0.343-0.408 0.226-0.779 0.538-1.111 0.934-0.333 0.397-0.627 0.854-0.885 1.374-0.264 0.519-0.501 1.055-0.71 1.608v0z" fill="#000000" data-fill-palette-color="primary"></path><path d="M172.679 28.548v0c-1.707-0.478-3.048-1.211-4.024-2.2-0.976-0.988-1.627-2.229-1.951-3.721v0l3.064-0.628c0.133 0.915 0.526 1.747 1.18 2.496 0.656 0.743 1.495 1.258 2.519 1.545v0c0.512 0.143 1.027 0.213 1.545 0.21 0.524-0.002 1.018-0.097 1.481-0.286 0.47-0.187 0.879-0.458 1.227-0.814 0.347-0.356 0.603-0.826 0.766-1.41v0c0.208-0.742 0.227-1.377 0.057-1.906-0.17-0.529-0.457-1.009-0.86-1.441-0.398-0.423-0.888-0.811-1.468-1.165-0.572-0.358-1.148-0.729-1.728-1.111v0c-1.655-1.066-2.772-2.182-3.352-3.349-0.579-1.167-0.675-2.44-0.289-3.819v0c0.263-0.939 0.672-1.716 1.227-2.332 0.561-0.614 1.215-1.079 1.962-1.394 0.745-0.308 1.55-0.479 2.416-0.512 0.859-0.035 1.722 0.068 2.589 0.311v0c1.687 0.473 3.011 1.215 3.973 2.229 0.969 1.015 1.538 2.204 1.708 3.568v0l-3.04 0.391c-0.117-0.946-0.426-1.74-0.925-2.383-0.491-0.647-1.298-1.128-2.421-1.443v0c-0.459-0.129-0.91-0.188-1.352-0.177-0.444 0.017-0.866 0.097-1.267 0.24-0.396 0.151-0.744 0.393-1.042 0.727-0.297 0.327-0.52 0.757-0.669 1.288v0c-0.151 0.538-0.184 1.024-0.101 1.459 0.082 0.441 0.281 0.854 0.598 1.24 0.315 0.393 0.755 0.792 1.32 1.198 0.559 0.404 1.223 0.852 1.992 1.344v0c1.537 0.983 2.681 2.079 3.433 3.287 0.743 1.213 0.882 2.651 0.416 4.311v0c-0.263 0.939-0.679 1.742-1.248 2.411-0.57 0.669-1.252 1.185-2.049 1.55-0.791 0.373-1.675 0.585-2.652 0.637-0.979 0.058-1.991-0.059-3.035-0.351z" fill="#000000" data-fill-palette-color="primary"></path><path d="M202.353 41.435l-2.676-1.717 15.769-24.567 2.677 1.718-5.618 8.751c1.341-0.524 2.596-0.707 3.766-0.548 1.179 0.157 2.19 0.507 3.033 1.048v0c0.78 0.501 1.423 1.071 1.927 1.711 0.505 0.64 0.827 1.349 0.968 2.128 0.146 0.782 0.09 1.658-0.168 2.626-0.263 0.965-0.767 2.027-1.51 3.186v0l-7.876 12.27-2.676-1.717 7.594-11.832c0.56-0.872 0.963-1.646 1.211-2.321 0.247-0.676 0.352-1.268 0.315-1.778-0.037-0.51-0.211-0.965-0.52-1.367-0.3-0.403-0.72-0.778-1.259-1.124v0c-0.889-0.571-1.874-0.822-2.954-0.754-1.082 0.058-2.222 0.364-3.419 0.916v0z" fill="#000000" data-fill-palette-color="primary"></path><path d="M237.457 74.715l-1.716-2.137 1.755-1.619c-0.979 0.043-1.971-0.135-2.974-0.536-1.004-0.401-1.962-1.169-2.876-2.307v0c-0.478-0.595-0.875-1.269-1.19-2.021-0.311-0.747-0.472-1.518-0.482-2.314-0.006-0.791 0.168-1.582 0.521-2.373 0.343-0.792 0.948-1.535 1.815-2.231v0c1.818-1.46 3.855-1.863 6.11-1.209 2.261 0.649 4.755 2.611 7.482 5.886v0l1.395-1.12c0.994-0.798 1.621-1.699 1.88-2.704 0.26-1.004-0.075-2.086-1.005-3.244v0c-0.713-0.888-1.527-1.449-2.442-1.685-0.916-0.226-1.922-0.157-3.019 0.208v0l-0.943-2.954c1.513-0.402 2.996-0.373 4.449 0.086 1.457 0.465 2.766 1.42 3.927 2.865v0c0.764 0.951 1.3 1.88 1.609 2.787 0.303 0.911 0.42 1.774 0.35 2.591-0.071 0.826-0.322 1.596-0.755 2.311-0.422 0.715-0.984 1.354-1.685 1.917v0zM234.182 67.208v0c0.632 0.787 1.362 1.337 2.191 1.65 0.833 0.319 1.708 0.499 2.625 0.541v0l4.95-3.976c-1.945-2.346-3.68-3.82-5.204-4.423-1.524-0.612-2.915-0.413-4.175 0.599v0c-1.052 0.845-1.561 1.769-1.525 2.772 0.046 1.004 0.425 1.95 1.138 2.837z" fill="#000000" data-fill-palette-color="primary"></path><path d="M249.336 97.861l-1.138-2.969 20.031-7.679 0.966 2.521-2.551 1.23c1.47 0.349 2.645 0.957 3.525 1.824 0.886 0.865 1.519 1.79 1.897 2.777v0c0.332 0.866 0.518 1.703 0.558 2.513 0.04 0.81-0.114 1.569-0.462 2.28-0.352 0.719-0.909 1.389-1.672 2.009-0.771 0.617-1.799 1.172-3.085 1.665v0l-13.691 5.248-1.139-2.969 13.128-5.033c0.967-0.371 1.751-0.755 2.351-1.152 0.599-0.398 1.035-0.813 1.307-1.246 0.272-0.433 0.402-0.903 0.391-1.409-0.003-0.503-0.119-1.053-0.349-1.652v0c-0.378-0.987-1.023-1.773-1.933-2.358-0.907-0.594-2.006-1.023-3.297-1.287v0z" fill="#000000" data-fill-palette-color="primary"></path><path d="M0 142.039c0-6.159 4.993-11.151 11.151-11.151 6.159 0 11.151 4.993 11.152 11.151 0 6.159-4.993 11.151-11.152 11.152-6.159 0-11.151-4.993-11.151-11.152z" fill="#000000" data-fill-palette-color="primary"></path><path d="M257.417 142.039c0-6.159 4.993-11.151 11.152-11.151 6.159 0 11.151 4.993 11.151 11.151 0 6.159-4.993 11.151-11.151 11.152-6.159 0-11.151-4.993-11.152-11.152z" fill="#000000" data-fill-palette-color="primary"></path></g><g id="text-1"><path d="M27.532 180.572l0.918 2.948-10.967-1.102-5.955 1.856-0.903-2.9 5.925-1.846 8.43-7.147 0.952 3.056-6.564 4.851z" fill="#c8c8c8" data-fill-palette-color="secondary"></path><path d="M27.493 190.38c0.607 1.46 0.565 2.807-0.127 4.039-0.682 1.236-2.031 2.272-4.045 3.109v0c-1.926 0.8-3.598 1.015-5.014 0.644-1.423-0.368-2.434-1.273-3.033-2.715v0c-0.602-1.448-0.542-2.797 0.178-4.049 0.718-1.258 2.061-2.296 4.032-3.114v0c1.958-0.813 3.632-1.029 5.023-0.648 1.389 0.375 2.384 1.287 2.986 2.734zM25.453 191.228c-0.262-0.629-0.761-0.961-1.498-0.994-0.746-0.037-1.849 0.248-3.31 0.855v0c-1.473 0.612-2.457 1.194-2.95 1.746-0.503 0.548-0.624 1.137-0.362 1.767v0c0.262 0.629 0.764 0.96 1.507 0.99 0.737 0.033 1.842-0.256 3.316-0.868v0c1.473-0.612 2.458-1.191 2.954-1.737 0.49-0.543 0.605-1.13 0.343-1.759z" fill="#c8c8c8" data-fill-palette-color="secondary"></path><path d="M34.415 205.183l-11.071 5.879-1.19-2.239 1.338-0.861c-0.757-0.045-1.393-0.21-1.906-0.493-0.519-0.28-0.931-0.706-1.235-1.278v0c-0.432-0.813-0.485-1.603-0.158-2.37 0.323-0.773 0.944-1.405 1.865-1.894v0l8.29-4.402 1.367 2.573-8.146 4.326c-0.861 0.457-1.135 0.981-0.821 1.571v0c0.176 0.331 0.464 0.56 0.863 0.688 0.4 0.127 0.893 0.178 1.481 0.151v0l7.956-4.225z" fill="#c8c8c8" data-fill-palette-color="secondary"></path><path d="M39.504 212.471c0.197 0.303 0.328 0.604 0.393 0.903v0l-2.596 1.128c-0.112-0.309-0.24-0.576-0.386-0.798v0c-0.327-0.503-0.803-0.759-1.426-0.767-0.63-0.005-1.428 0.193-2.395 0.594v0l-5.776 3.759-1.59-2.443 10.508-6.837 1.383 2.126-1.709 1.367c1.708-0.412 2.906-0.09 3.594 0.968z" fill="#c8c8c8" data-fill-palette-color="secondary"></path><path d="M51.424 221.216c0.586 0.682 0.989 1.397 1.208 2.143 0.218 0.756 0.299 1.572 0.243 2.448v0l-2.173-0.128c0.001-0.648-0.067-1.192-0.203-1.633-0.14-0.446-0.386-0.873-0.737-1.281v0c-0.68-0.791-1.567-1.107-2.661-0.948-1.095 0.159-2.511 0.985-4.248 2.478v0c-1.22 1.049-2.105 1.953-2.656 2.714-0.55 0.751-0.826 1.402-0.829 1.953-0.004 0.56 0.214 1.097 0.654 1.608v0c0.467 0.543 1.041 0.908 1.722 1.095v0l3.366-2.893-1.206-1.403 1.506-1.699 3.272 3.808-6.072 5.218c-0.817-0.197-1.6-0.517-2.349-0.961-0.749-0.453-1.401-1.003-1.956-1.649v0c-1.328-1.546-1.802-3.153-1.42-4.82 0.392-1.667 1.697-3.454 3.915-5.36v0c1.437-1.235 2.821-2.056 4.153-2.463 1.33-0.397 2.544-0.434 3.64-0.109 1.092 0.329 2.035 0.956 2.831 1.882z" fill="#c8c8c8" data-fill-palette-color="secondary"></path><path d="M52.6 241.796c-0.286 0.302-0.457 0.562-0.514 0.781-0.057 0.219-0.036 0.459 0.064 0.722v0l-1.766 1.003c-0.419-0.5-0.676-0.982-0.771-1.446-0.095-0.455-0.021-0.949 0.22-1.482v0c-1.354 0.37-2.507 0.106-3.458-0.794v0c-0.758-0.717-1.12-1.543-1.088-2.48 0.042-0.937 0.463-1.828 1.264-2.675v0c0.932-0.985 1.951-1.448 3.057-1.386 1.101 0.066 2.236 0.652 3.405 1.757v0l0.705 0.668 0.605-0.639c0.543-0.574 0.826-1.072 0.848-1.492 0.022-0.43-0.19-0.855-0.636-1.277v0c-0.54-0.511-1.354-0.994-2.441-1.451v0l0.824-1.839c0.657 0.228 1.283 0.519 1.876 0.874 0.598 0.36 1.12 0.75 1.566 1.172v0c2 1.893 2.045 3.849 0.133 5.87v0zM48.394 239.577c0.55 0.52 1.324 0.54 2.324 0.058v0l1.813-1.916-0.498-0.471c-0.584-0.553-1.137-0.822-1.657-0.807-0.521 0.005-1.041 0.282-1.561 0.831v0c-0.445 0.47-0.703 0.902-0.774 1.295-0.061 0.392 0.056 0.729 0.353 1.01z" fill="#c8c8c8" data-fill-palette-color="secondary"></path><path d="M59.557 248.333l-0.32 2.045c-0.994 0.002-1.9-0.322-2.716-0.972v0c-0.853-0.679-1.306-1.44-1.359-2.283-0.062-0.842 0.243-1.684 0.914-2.527v0l4.545-5.713-1.144-0.91 1.312-1.649 1.144 0.911 1.725-2.169 2.503 1.535-1.948 2.448 1.856 1.477-1.535 1.47-1.632-1.299-4.546 5.713c-0.471 0.592-0.453 1.09 0.053 1.493v0c0.165 0.132 0.326 0.225 0.483 0.28 0.157 0.055 0.378 0.105 0.665 0.15z" fill="#c8c8c8" data-fill-palette-color="secondary"></path><path d="M72.317 252.088c-0.08 0.118-0.326 0.438-0.738 0.958v0l-5.354-3.638c-0.677 1.106-1 1.982-0.97 2.629 0.034 0.641 0.344 1.161 0.931 1.56v0c0.406 0.276 0.818 0.457 1.237 0.544 0.423 0.081 0.925 0.101 1.506 0.058v0l0.076 2.054c-1.524 0.267-2.926-0.035-4.207-0.904v0c-1.359-0.923-2.082-2.103-2.17-3.539-0.082-1.432 0.459-3.005 1.624-4.719v0c1.161-1.708 2.425-2.823 3.793-3.344 1.366-0.531 2.683-0.365 3.952 0.496v0c1.218 0.827 1.865 1.914 1.939 3.259 0.085 1.343-0.455 2.872-1.619 4.586zM70.35 249.924l0.092-0.136c0.667-0.981 1.035-1.778 1.104-2.389 0.07-0.612-0.155-1.094-0.673-1.447v0c-0.485-0.329-1.002-0.363-1.551-0.101-0.558 0.264-1.236 0.928-2.034 1.993v0z" fill="#c8c8c8" data-fill-palette-color="secondary"></path><path d="M87.149 253.234l2.39 1.256-7.734 10.097-3.15-1.656 3.361-9.404-5.813 8.115-3.132-1.646 3.887-12.119 2.498 1.313-3.688 9.763 6.222-8.431 2.625 1.38-3.48 9.872z" fill="#c8c8c8" data-fill-palette-color="secondary"></path><path d="M95.529 267.101c-0.153 0.386-0.216 0.692-0.187 0.916 0.028 0.224 0.137 0.44 0.326 0.647v0l-1.268 1.587c-0.574-0.309-0.992-0.661-1.252-1.058-0.257-0.388-0.372-0.874-0.346-1.458v0c-1.121 0.846-2.289 1.028-3.505 0.545v0c-0.969-0.385-1.613-1.018-1.931-1.899-0.309-0.885-0.248-1.87 0.182-2.953v0c0.5-1.261 1.276-2.068 2.326-2.422 1.047-0.347 2.318-0.224 3.813 0.37v0l0.903 0.358 0.325-0.817c0.292-0.735 0.37-1.302 0.234-1.7-0.139-0.407-0.494-0.724-1.064-0.95v0c-0.691-0.274-1.626-0.422-2.805-0.443v0l0.084-2.013c0.695-0.032 1.384 0.006 2.066 0.116 0.689 0.112 1.318 0.281 1.889 0.508v0c2.56 1.016 3.326 2.816 2.3 5.401v0zM90.8 266.599c0.703 0.279 1.43 0.01 2.179-0.807v0l0.974-2.452-0.637-0.252c-0.748-0.297-1.36-0.342-1.838-0.136-0.482 0.197-0.862 0.648-1.142 1.351v0c-0.239 0.602-0.319 1.098-0.239 1.489 0.088 0.387 0.323 0.656 0.703 0.807z" fill="#c8c8c8" data-fill-palette-color="secondary"></path><path d="M110.717 261.766l-6.694 11.165c-0.814 1.34-1.784 2.301-2.911 2.883-1.118 0.577-2.434 0.721-3.947 0.432v0l0.261-2.075c1.013 0.081 1.821-0.026 2.424-0.32 0.603-0.294 1.174-0.856 1.712-1.686v0l-1.05-0.304 0.433-12.926 2.849 0.825-0.945 10.755 5.089-9.554z" fill="#c8c8c8" data-fill-palette-color="secondary"></path><path d="M121.863 274.189l0.727 1.938c-0.865 0.491-1.812 0.654-2.842 0.49v0c-1.077-0.171-1.846-0.611-2.306-1.319-0.468-0.703-0.618-1.586-0.449-2.649v0l1.147-7.21-1.444-0.23 0.33-2.08 1.444 0.229 0.435-2.736 2.935 0.104-0.492 3.09 2.343 0.372-0.613 2.036-2.06-0.328-1.147 7.21c-0.119 0.747 0.142 1.172 0.781 1.274v0c0.209 0.033 0.395 0.035 0.559 0.006 0.163-0.029 0.381-0.095 0.652-0.197z" fill="#c8c8c8" data-fill-palette-color="secondary"></path><path d="M130.862 264.512c1.576 0.127 2.755 0.779 3.535 1.956 0.788 1.171 1.094 2.844 0.919 5.019v0c-0.167 2.079-0.74 3.664-1.716 4.755-0.977 1.098-2.244 1.584-3.8 1.458v0c-1.563-0.126-2.736-0.795-3.521-2.007-0.791-1.213-1.102-2.882-0.93-5.009v0c0.17-2.113 0.743-3.702 1.717-4.765 0.968-1.064 2.233-1.533 3.796-1.407zM130.685 266.713c-0.679-0.055-1.202 0.238-1.569 0.879-0.374 0.647-0.624 1.759-0.751 3.335v0c-0.128 1.59-0.059 2.731 0.207 3.422 0.258 0.698 0.727 1.074 1.407 1.129v0c0.679 0.055 1.203-0.242 1.569-0.889 0.366-0.641 0.613-1.756 0.741-3.346v0c0.128-1.59 0.063-2.73-0.196-3.421-0.259-0.684-0.729-1.054-1.408-1.109z" fill="#c8c8c8" data-fill-palette-color="secondary"></path><path d="M149.382 260.63c0.837-0.055 1.584 0.036 2.241 0.272 0.657 0.23 1.304 0.611 1.941 1.143v0l-1.335 1.82c-0.433-0.354-0.85-0.61-1.25-0.768-0.393-0.152-0.82-0.212-1.283-0.182v0c-0.945 0.062-1.652 0.584-2.12 1.564-0.475 0.981-0.639 2.583-0.492 4.808v0c0.144 2.19 0.517 3.744 1.117 4.66 0.593 0.917 1.38 1.344 2.359 1.279v0c0.49-0.032 0.908-0.159 1.256-0.38 0.347-0.221 0.753-0.552 1.215-0.992v0l1.558 1.557c-0.466 0.605-1.043 1.114-1.734 1.529-0.683 0.421-1.466 0.66-2.35 0.718v0c-1.843 0.122-3.356-0.499-4.539-1.862-1.183-1.363-1.868-3.463-2.056-6.3v0c-0.124-1.877 0.034-3.466 0.475-4.765 0.434-1.292 1.083-2.278 1.947-2.957 0.87-0.686 1.887-1.067 3.05-1.144z" fill="#c8c8c8" data-fill-palette-color="secondary"></path><path d="M156.15 264.176l2.887-0.397 1.707 12.419-2.887 0.397zM156.736 257.779c0.513-0.071 0.955 0.037 1.324 0.324 0.362 0.281 0.579 0.681 0.65 1.2v0c0.069 0.5-0.033 0.937-0.304 1.312-0.28 0.369-0.676 0.588-1.19 0.659v0c-0.52 0.071-0.964-0.033-1.333-0.312-0.363-0.287-0.579-0.681-0.647-1.181v0c-0.071-0.52 0.029-0.964 0.302-1.332 0.279-0.375 0.678-0.599 1.198-0.67z" fill="#c8c8c8" data-fill-palette-color="secondary"></path><path d="M169.71 272.013l1.368 1.553c-0.634 0.766-1.462 1.255-2.483 1.468v0c-1.068 0.222-1.943 0.084-2.624-0.415-0.687-0.491-1.14-1.263-1.361-2.317v0l-1.488-7.147-1.432 0.298-0.429-2.062 1.431-0.298-0.565-2.713 2.78-0.945 0.638 3.064 2.322-0.484 0.15 2.12-2.042 0.426 1.488 7.147c0.154 0.741 0.548 1.045 1.183 0.913v0c0.207-0.043 0.381-0.107 0.524-0.193 0.142-0.085 0.322-0.224 0.54-0.415z" fill="#c8c8c8" data-fill-palette-color="secondary"></path><path d="M178.985 258.865l0.33 13.014c0.031 1.567-0.274 2.898-0.913 3.993-0.635 1.087-1.669 1.913-3.101 2.48v0l-0.892-1.892c0.898-0.475 1.523-0.998 1.875-1.568 0.352-0.571 0.533-1.352 0.543-2.342v0l-1.05 0.306-6.56-11.146 2.847-0.829 4.966 9.587-0.823-10.794z" fill="#c8c8c8" data-fill-palette-color="secondary"></path><path d="M200.777 263.273l-2.785 1.26-2.317-3.161-3.847 1.74 0.872 3.814-2.748 1.243-2.987-16.627 3.326-1.504zM189.525 252.909l1.801 7.928 3-1.357z" fill="#c8c8c8" data-fill-palette-color="secondary"></path><path d="M199.998 243.247l2.699-1.169 8.673 15.264-2.249 1.278-0.837-1.183c-0.053 1.41-0.587 2.403-1.6 2.979v0c-1.132 0.643-2.282 0.626-3.451-0.05-1.171-0.667-2.272-1.908-3.302-3.721v0c-0.657-1.156-1.078-2.257-1.265-3.304-0.187-1.046-0.138-1.96 0.147-2.741 0.285-0.781 0.783-1.374 1.495-1.778v0c0.877-0.498 1.804-0.543 2.781-0.134v0zM206.313 258.087c0.314-0.178 0.536-0.45 0.667-0.814 0.13-0.364 0.201-0.82 0.211-1.367v0l-3.011-5.298c-0.86-0.492-1.571-0.577-2.134-0.258v0c-1.114 0.633-0.946 2.227 0.506 4.782v0c0.788 1.387 1.49 2.297 2.105 2.731 0.606 0.432 1.158 0.506 1.656 0.224z" fill="#c8c8c8" data-fill-palette-color="secondary"></path><path d="M212.659 241.185l2.332-1.661 4.618 12.102-2.806 1.999-10.015-8.257 2.457-1.75 7.589 7.109z" fill="#c8c8c8" data-fill-palette-color="secondary"></path><path d="M227.245 236.974c0.093 0.109 0.335 0.431 0.727 0.966v0l-4.929 4.194c0.886 0.947 1.645 1.491 2.276 1.634 0.627 0.138 1.211-0.023 1.751-0.483v0c0.374-0.318 0.658-0.667 0.853-1.048 0.191-0.386 0.343-0.865 0.457-1.436v0l2 0.474c-0.148 1.54-0.812 2.812-1.99 3.814v0c-1.251 1.065-2.581 1.448-3.988 1.151-1.402-0.302-2.775-1.242-4.118-2.82v0c-1.338-1.573-2.077-3.088-2.216-4.545-0.148-1.458 0.361-2.684 1.53-3.678v0c1.121-0.954 2.34-1.289 3.657-1.003 1.317 0.275 2.647 1.202 3.99 2.78zM224.636 238.294l-0.106-0.124c-0.769-0.903-1.439-1.47-2.01-1.7-0.571-0.23-1.096-0.142-1.573 0.265v0c-0.447 0.38-0.617 0.869-0.511 1.467 0.106 0.608 0.566 1.438 1.381 2.491v0z" fill="#c8c8c8" data-fill-palette-color="secondary"></path><path d="M229.11 226.103c0.629-0.644 1.356-0.924 2.181-0.842 0.83 0.077 1.635 0.497 2.415 1.259v0l6.648 6.495-2.036 2.085-6.407-6.26c-0.429-0.419-0.796-0.658-1.1-0.718-0.304-0.069-0.566 0.009-0.786 0.234v0c-0.467 0.478-0.48 1.384-0.041 2.719v0l6.276 6.131-2.037 2.084-8.966-8.761 1.772-1.813 1.32 0.989c-0.178-0.774-0.214-1.444-0.11-2.008 0.104-0.575 0.394-1.106 0.871-1.594z" fill="#c8c8c8" data-fill-palette-color="secondary"></path><path d="M244.675 224.021l2.042 0.338c-0.007 0.994-0.338 1.897-0.995 2.707v0c-0.686 0.848-1.451 1.294-2.294 1.339-0.842 0.055-1.682-0.257-2.52-0.934v0l-5.674-4.594-0.92 1.137-1.637-1.326 0.92-1.136-2.154-1.744 1.556-2.49 2.432 1.969 1.492-1.844 1.457 1.548-1.312 1.621 5.674 4.594c0.588 0.476 1.086 0.462 1.493-0.041v0c0.133-0.164 0.228-0.324 0.284-0.481 0.056-0.156 0.108-0.377 0.156-0.663z" fill="#c8c8c8" data-fill-palette-color="secondary"></path><path d="M243.472 208.176l10.287 7.164-1.45 2.081-1.376-0.796c0.305 0.695 0.449 1.335 0.431 1.92-0.012 0.59-0.203 1.15-0.573 1.682v0c-0.526 0.755-1.205 1.163-2.036 1.223-0.835 0.066-1.681-0.199-2.536-0.794v0l-7.703-5.365 1.666-2.391 7.568 5.271c0.8 0.557 1.391 0.562 1.772 0.013v0c0.214-0.308 0.287-0.668 0.218-1.082-0.069-0.414-0.25-0.876-0.542-1.386v0l-7.392-5.149z" fill="#c8c8c8" data-fill-palette-color="secondary"></path><path d="M247.632 200.32c0.179-0.314 0.388-0.568 0.624-0.762v0l2.19 1.795c-0.224 0.241-0.402 0.477-0.535 0.707v0c-0.298 0.521-0.308 1.061-0.031 1.62 0.283 0.562 0.824 1.182 1.622 1.858v0l5.982 3.423-1.447 2.529-10.881-6.225 1.259-2.201 1.997 0.895c-1.147-1.331-1.407-2.544-0.78-3.639z" fill="#c8c8c8" data-fill-palette-color="secondary"></path><path d="M258.437 192.203c0.13 0.061 0.484 0.253 1.063 0.577v0l-2.744 5.861c1.199 0.494 2.115 0.674 2.749 0.542 0.628-0.135 1.092-0.524 1.392-1.165v0c0.208-0.445 0.322-0.88 0.342-1.308 0.013-0.43-0.047-0.929-0.181-1.496v0l2.016-0.4c0.504 1.463 0.429 2.895-0.227 4.297v0c-0.696 1.488-1.747 2.389-3.151 2.702-1.401 0.308-3.04 0.022-4.916-0.856v0c-1.871-0.876-3.172-1.947-3.903-3.216-0.74-1.265-0.785-2.592-0.135-3.98v0c0.624-1.334 1.594-2.144 2.911-2.431 1.313-0.296 2.908-0.005 4.784 0.873zM256.612 194.487l-0.149-0.069c-1.074-0.503-1.919-0.74-2.534-0.712-0.615 0.028-1.056 0.326-1.322 0.894v0c-0.249 0.531-0.2 1.047 0.146 1.547 0.349 0.509 1.112 1.074 2.289 1.693v0z" fill="#c8c8c8" data-fill-palette-color="secondary"></path><path d="M254.819 183.77c0.504-1.398 1.391-2.412 2.661-3.041v0l1.113 1.586c-0.443 0.304-0.805 0.616-1.087 0.934-0.282 0.319-0.493 0.674-0.634 1.065v0c-0.155 0.43-0.161 0.808-0.018 1.135 0.143 0.327 0.413 0.562 0.811 0.705v0c0.404 0.146 0.778 0.124 1.121-0.063 0.341-0.181 0.825-0.63 1.453-1.346v0c0.774-0.88 1.526-1.468 2.255-1.763 0.721-0.291 1.543-0.27 2.466 0.063v0c1.141 0.411 1.901 1.138 2.279 2.18 0.372 1.04 0.334 2.178-0.112 3.416v0c-0.289 0.802-0.699 1.487-1.23 2.056-0.54 0.573-1.16 1.017-1.86 1.33v0l-0.99-1.868c1.029-0.564 1.7-1.278 2.012-2.144v0c0.176-0.487 0.183-0.92 0.022-1.296-0.155-0.375-0.463-0.645-0.925-0.812v0c-0.34-0.123-0.64-0.165-0.899-0.128-0.262 0.043-0.539 0.179-0.831 0.407-0.292 0.228-0.655 0.601-1.088 1.118v0c-0.774 0.88-1.505 1.443-2.195 1.687-0.698 0.248-1.464 0.222-2.298-0.078v0c-0.994-0.358-1.688-1.007-2.081-1.946-0.393-0.939-0.375-2.005 0.055-3.197z" fill="#c8c8c8" data-fill-palette-color="secondary"></path><path d="M253.51 176.694l0.869-2.984 10.105 3.367-0.643 2.209zM266.464 178.836c0.145-0.497 0.438-0.859 0.881-1.086 0.449-0.224 0.915-0.266 1.399-0.125v0c0.484 0.141 0.852 0.426 1.104 0.854 0.258 0.43 0.315 0.894 0.17 1.391v0c-0.147 0.504-0.443 0.865-0.89 1.083-0.442 0.226-0.905 0.269-1.39 0.128v0c-0.484-0.141-0.856-0.427-1.113-0.857-0.254-0.422-0.307-0.884-0.161-1.388z" fill="#c8c8c8" data-fill-palette-color="secondary"></path></g></svg></g></svg></g></svg></g></svg></g><defs></defs></svg><rect width="279.72" height="279.72" fill="none" stroke="none" visibility="hidden"></rect></g></svg></g></svg>